<?xml version="1.0" encoding="utf-8"?>
<!-- Generator: Adobe Illustrator 19.2.1, SVG Export Plug-In . SVG Version: 6.00 Build 0)  -->
<svg version="1.1" id="layer" xmlns="http://www.w3.org/2000/svg" xmlns:xlink="http://www.w3.org/1999/xlink" x="0px" y="0px"
	 viewBox="0 0 652 652" style="enable-background:new 0 0 652 652;" xml:space="preserve">
<style type="text/css">
	.st0{fill:#6E0FEA;}
</style>
<title>Matrix_BW_Logo</title>
<desc>Created with Sketch.</desc>
<path class="st0" d="M205.7,356.4H221v-22.2h25.2v-13.3H221v-13h32.7v-13.4h-47.9V356.4z M279.1,308.5c-14.1,0-25.6,9.8-25.6,24.6
	c0,14.8,11.5,24.6,25.6,24.6c14.1,0,25.6-9.7,25.6-24.6C304.7,318.3,293.2,308.5,279.1,308.5z M279.1,345.1
	c-6.3,0-11.4-5.1-11.4-11.3c0-0.2,0-0.4,0-0.6c0-6.3,5.1-11.4,11.4-11.4s11.4,5.1,11.4,11.4c0.3,6.3-4.5,11.6-10.7,12
	C279.5,345.1,279.3,345.1,279.1,345.1z M494.9,313.7c-4-3.3-9.1-5.1-14.3-5.1c-12.6,0-22.9,9.8-22.9,24.6
	c0,14.8,10.2,24.6,22.9,24.6c5.2,0,10.3-1.8,14.3-5.2v3.8h14.8v-46.5h-14.8V313.7z M483.4,345.1c-6.3,0-11.4-5.1-11.4-11.3
	c0-0.2,0-0.4,0-0.6c0-6.3,5.1-11.4,11.4-11.4s11.4,5.1,11.4,11.4c0.3,6.3-4.5,11.6-10.7,12C483.8,345.1,483.6,345.1,483.4,345.1z
	 M373.9,308.5c-13.2-0.4-24.1,9.9-24.5,23.1c0,0.5,0,1,0,1.5c0.1,13.6,11.1,24.6,24.7,24.5c9.6,0,18.4-5.7,22.3-14.5l-13-2.7
	c-1.9,3.2-5.3,5.2-9.1,5.2c-5.1-0.1-9.5-3.7-10.6-8.7H398c0.2-1.3,0.3-2.5,0.4-3.8c0.4-13.1-9.9-24.2-23-24.6
	C374.9,308.5,374.4,308.5,373.9,308.5z M383.6,329.7h-19.3v-1.9c1.5-5.3,7-8.4,12.4-6.9c3.3,0.9,6,3.6,6.9,6.9L383.6,329.7z
	 M429.1,345.1c-5.9,0-10.7-4.7-10.7-12s4.8-12,10.7-12c4.6,0,8.6,2.9,10,7.3l13.7-3.3c-3.3-10.2-13-17-23.7-16.6
	c-13.8,0-25,9.8-25,24.6c0,14.8,11.2,24.6,25,24.6c11.1,0,20.5-6.4,23.7-16.6l-13.7-3.3C437.7,342.1,433.7,345.1,429.1,345.1z
	 M619.7,296.2l-3.1,6.1l-3.1-6.1h-1.6v8.6h1.5v-5.8l2.8,5.7h1l2.8-5.7v5.8h1.5v-8.6H619.7z M603,297.5h3v7.3h1.6v-7.3h3v-1.3H603
	V297.5z M343.1,309.3c-6.4,0.1-12.5,2.6-17.2,7l-5.7-6.4h-8v46.5h14.8v-14.5c0-11.6,5.3-17.4,16-17.4h2.7l0.6-14.8
	C345.4,309.4,344.3,309.3,343.1,309.3z M599.1,342.7c-2,1.2-4.4,1.9-6.8,1.9c-4.1,0-6.2-2.3-6.2-6.8v-16.1h13.7v-11.8h-13.7v-13.7
	h-9.8c0,8.4-5.1,13.1-12.2,13.6c-0.4,0-0.9,0-1.3,0l0,0v6.9l0,0v4.9h8.4v17.6c0,9.7,4.6,18.5,18.5,18.5c4.4-0.1,8.8-1.2,12.7-3.4
	L599.1,342.7z M547.3,328.2l-10.9-2.2c-2.4-0.5-3.6-1.6-3.6-3.2c0-2.5,2.5-3.6,5.3-3.6c6.1,0,7.6,3.9,7.8,5.5l13.5-2.7
	c-1.5-6.5-7.6-13.3-21.1-13.3c-10.4,0-20,5.2-20,15.7c0,7.3,4.5,11.8,13.5,13.5l9.5,1.9c3.1,0.5,4.6,1.7,4.6,3.4c0,2-2.2,3.8-6,3.8
	c-4.7,0-7.6-1.9-8.2-5.5l-14.4,3c1.2,7.1,7.1,13.5,21.8,13.5c12.5,0,21.1-5.4,21.1-15.6C560.2,334.2,554.9,329.8,547.3,328.2z
	 M152.2,279.6l-58.9-34.1c-2.7-1.6-6-1.6-8.7,0l-58.9,34.1c-2.7,1.6-4.4,4.5-4.3,7.6v68c0,3.1,1.6,6,4.3,7.6l58.9,34.1
	c2.7,1.6,6,1.6,8.7,0l58.9-34.2c2.7-1.6,4.4-4.5,4.3-7.6v-68C156.5,284,154.9,281.1,152.2,279.6z M109.3,331.7l-16.9,9.8V356
	c0,3.1-1.6,6-4.3,7.6l-12.6,7.3v-34.1c0-3.1,1.6-6,4.3-7.6l29.5-17V331.7z M109.3,292.7l-33.8,19.5v-14.5c0-3.1,1.6-6,4.3-7.6
	l29.5-17V292.7z"/>
</svg>
